Coordinates
version=1
nRows=8
nColumns=36
inDegrees=yes

Units are S.I. units (second, meters, Newtons, ...)
If the header above contains a line with 'inDegrees', this indicates whether rotational values are in degrees (yes) or radians (no).

endheader
time	pelvis_tilt	pelvis_list	pelvis_rotation	pelvis_tx	pelvis_ty	pelvis_tz	hip_flexion_r	hip_adduction_r	hip_rotation_r	knee_angle_r	knee_angle_r_beta	ankle_angle_r	subtalar_angle_r	mtp_angle_r	hip_flexion_l	hip_adduction_l	hip_rotation_l	knee_angle_l	knee_angle_l_beta	ankle_angle_l	subtalar_angle_l	mtp_angle_l	lumbar_extension	lumbar_bending	lumbar_rotation	arm_flex_r	arm_add_r	arm_rot_r	elbow_flex_r	pro_sup_r	arm_flex_l	arm_add_l	arm_rot_l	elbow_flex_l	pro_sup_l
     10.02000000	    -12.37805157	     -0.07726555	     -1.75620259	     -0.43825190	      0.82902238	     -0.61813839	     66.07269586	      0.91771222	      4.10214277	     75.76782776	      1.32239806	     22.98267037	    -17.86864382	     -7.49999987	     65.34333534	     -1.39415601	      0.39805778	     76.16491568	      1.32932855	     26.04724930	    -11.19902949	     -7.49999987	    -24.29739717	     -0.42205782	     -1.17113048	      9.11722267	    -18.77138984	      3.05546713	     70.87485538	    104.88623368	      2.59844345	    -16.91481359	     -0.10005895	     78.90453595	     92.05253633
     10.03000000	    -12.24231584	     -0.07498916	     -1.69652374	     -0.44049530	      0.82118736	     -0.61803688	     67.02425277	      0.96562909	      4.17908808	     77.30553662	      1.34923614	     23.46244399	    -17.82804049	     -7.49999987	     66.28625174	     -1.35351920	      0.46372104	     77.65452609	      1.35532716	     26.50581819	    -11.13817317	     -7.49999987	    -24.75270563	     -0.45468777	     -1.18454877	      9.33725733	    -19.45880971	      3.69117414	     71.52098415	    104.92332624	      2.68820427	    -17.14442410	     -0.06256785	     79.57154147	     92.13863430
     10.04000000	    -12.01641178	     -0.05578631	     -1.62388036	     -0.44262576	      0.81352055	     -0.61795792	     67.87915462	      0.95836678	      4.21940275	     78.82180445	      1.37570001	     23.82055332	    -17.90845591	     -7.49999987	     67.13089914	     -1.32239576	      0.48987594	     79.12526775	      1.38099644	     26.81550694	    -11.14428155	     -7.49999987	    -25.26394004	     -0.50356432	     -1.17668433	      9.57327938	    -19.97083715	      4.09449821	     71.84522976	    104.96197316	      2.82645543	    -17.29329476	     -0.01545829	     79.99290641	     92.18621239
     10.05000000	    -12.01884076	     -0.02959447	     -1.55039739	     -0.44466642	      0.80532138	     -0.61792531	     68.97772531	      0.98559740	      4.30061587	     80.33496443	      1.40210963	     24.32501645	    -17.87068925	     -7.49999987	     68.24740092	     -1.25775191	      0.55524042	     80.62519556	      1.40717512	     27.25990903	    -10.98204590	     -7.49999987	    -25.49438214	     -0.54851793	     -1.17719655	      9.63656657	    -20.66893803	      4.91836634	     72.40685015	    105.04229020	      2.73166104	    -17.48014556	      0.12755539	     80.67197906	     92.25589718
     10.06000000	    -11.94263399	     -0.01437952	     -1.48947506	     -0.44652555	      0.79727319	     -0.61798120	     69.97524818	      1.00113298	      4.34887132	     81.82424096	      1.42810241	     24.79746860	    -17.72330349	     -7.49999987	     69.25009880	     -1.18650064	      0.64544325	     82.11581582	      1.43319135	     27.71321789	    -10.74574857	     -7.49999987	    -25.75417727	     -0.57072314	     -1.23799758	      9.78470076	    -21.31183106	      5.73924823	     72.73407030	    105.06748528	      2.57943996	    -17.60414031	      0.13141873	     81.16026868	     92.27731176
     10.07000000	    -11.85828463	     -0.02672854	     -1.41052234	     -0.44833117	      0.78924681	     -0.61804517	     70.93698675	      1.02615034	      4.38209956	     83.27254687	      1.45338012	     25.19510792	    -17.71221647	     -7.49999987	     70.24511882	     -1.09608778	      0.77217472	     83.57146276	      1.45859719	     28.08903981	    -10.67614226	     -7.49999987	    -25.98640588	     -0.56722016	     -1.26692128	      9.92776734	    -21.78025137	      6.32338240	     72.85241316	    105.06026623	      2.45972144	    -17.62938268	      0.17236465	     81.53975112	     92.28651318
     10.08000000	    -11.90904994	     -0.16229264	     -1.30294408	     -0.45017243	      0.78083506	     -0.61799100	     72.04662600	      1.10579018	      4.28910236	     84.70984390	      1.47846568	     25.61026923	    -17.63913585	     -7.49999987	     71.44892442	     -1.08112951	      0.99235303	     85.08228621	      1.48496603	     28.47649490	    -10.48432609	     -7.49999987	    -26.02560947	     -0.43333887	     -1.32514395	     10.12316425	    -22.22567642	      7.00685257	     72.89350669	    105.04260133	      2.19213484	    -17.68404807	      0.18403447	     81.92097439	     92.26773973
     10.09000000	    -11.93459628	     -0.36313377	     -1.17908851	     -0.45205048	      0.77243342	     -0.61789051	     73.10467389	      1.23228683	      4.17616644	     86.09119842	      1.50257487	     25.91702902	    -17.72743032	     -7.49999987	     72.63923890	     -1.10359741	      1.24093990	     86.57038823	      1.51093831	     28.83621150	    -10.38646481	     -7.49999987	    -26.06906011	     -0.23676910	     -1.31230402	     10.23335703	    -22.61652808	      7.59733053	     72.93732306	    105.03294845	      1.94114903	    -17.65080553	      0.22110530	     82.25689089	     92.23496290
